<?xml version="1.0" encoding="UTF-8"?>
<svg id="Layer_1" data-name="Layer 1" xmlns="http://www.w3.org/2000/svg" viewBox="0 0 338.4 144">
  <defs>
    <style>
      .cls-1 {
        fill: #f7f5ee;
      }

      .cls-2 {
        fill: #0043ff;
      }

      .cls-3 {
        fill: #600;
      }

      .cls-4 {
        fill: #fff;
      }

      .cls-5 {
        fill: #000e35;
      }

      .cls-6 {
        fill: #ff1200;
      }
    </style>
  </defs>
  <path d="M259.01,64.41l16.03-26.05h-15.35l-9.11,16.41-9.18-16.41h-16.03l16.03,25.52-10.91,17.72-14.72-43.24h-17.38l-15.59,45.62v-45.62h-16.48l-11.97,36.36-11.97-36.36h-5.82l-10.81,20.77v32.98h12.87v-31.77l10.32,31.77h10.31l10.38-31.91v31.91h24.63l3.24-10.31h18.67l3.23,10.31h0s0,0,0,0h20.06l10.46-18.82,11.14,18.82h16.11l-18.13-27.7ZM200.78,70.36l6.02-20.1,6.02,20.1h-12.04Z"/>
  <g>
    <path d="M125.73,49.66v-11.29h-37.11v53.75h19.95l5.88-11.29h-11.67v-10.31h17.04l5.92-11.37h-22.96v-9.48h22.96Z"/>
    <path d="M70.14,61.1c-1.23,1.15-3.4,1.73-6.52,1.73h-7.3v-13.63h7.07c3.16,0,5.38.56,6.66,1.66,1.28,1.1,1.92,2.78,1.92,5.04s-.62,4.05-1.84,5.2ZM77.4,70.58c5.51-3.16,8.28-8.26,8.28-15.28,0-5.22-1.7-9.35-5.08-12.38-3.39-3.04-8.8-4.55-16.22-4.55h-21.61v53.75h13.56v-18.6h8.35l9.04,18.6h14.9l-11.21-21.53Z"/>
  </g>
  <path class="cls-4" d="M23.49,56.37c-.64,0-1.2-.39-1.66-.77-3.01-2.59-8.35-7.29-10.45-9.85-1.81-2.21-3.37-4.24-4.15-6.83-.45-1.47-.68-3.01-.68-4.57,0-2.05.39-4.05,1.16-5.95,2.56-6.3,8.75-10.37,15.78-10.37s13.22,4.07,15.78,10.37c.77,1.9,1.16,3.9,1.16,5.95,0,1.56-.23,3.1-.68,4.57-.78,2.58-2.34,4.62-4.15,6.83-2.1,2.56-7.43,7.26-10.43,9.83-.49.4-1.05.79-1.68.79Z"/>
  <g>
    <g>
      <path class="cls-1" d="M38.4,28.76H8.45c-.71,1.74-1.1,3.63-1.1,5.61,0,1.5.22,2.95.64,4.32h30.87c.42-1.37.64-2.82.64-4.32,0-1.98-.39-3.87-1.1-5.61Z"/>
      <path class="cls-3" d="M23.42,18.93c-6.82,0-12.64,4.08-14.98,9.83h29.96c-2.34-5.75-8.16-9.83-14.98-9.83Z"/>
    </g>
    <path class="cls-5" d="M7.99,38.69c.75,2.5,2.37,4.54,4.01,6.55,2.19,2.67,8.14,7.86,10.47,9.86h0c.31.26.68.52.95.52s.64-.26.95-.52h0c2.33-2,8.28-7.19,10.47-9.86,1.64-2,3.26-4.04,4.01-6.55H7.99Z"/>
    <path class="cls-6" d="M38.4,28.76h-14.98v-7.14c0-1.52,1.37-2.7,2.87-2.44,5.55.96,10.11,4.66,12.11,9.58Z"/>
    <path class="cls-2" d="M38.86,38.69c-.76,2.5-2.37,4.54-4.01,6.55-2.19,2.67-8.14,7.86-10.47,9.86h0c-.31.26-.68.52-.95.52v-14.35c0-1.42,1.15-2.57,2.57-2.57h12.87Z"/>
  </g>
  <g>
    <path d="M60.97,120.79l5.05,2.55c-1.11,1.94-2.6,3.51-4.46,4.72-1.86,1.21-4.06,1.81-6.57,1.81-3.51,0-6.43-1.2-8.77-3.61-2.34-2.41-3.5-5.69-3.5-9.86,0-3.78,1.17-6.97,3.52-9.55,2.35-2.59,5.31-3.88,8.9-3.88,2.32,0,4.48.61,6.46,1.83s3.44,2.8,4.36,4.74l-5.08,2.51c-.29-1.01-.95-1.9-2-2.69-1.04-.79-2.19-1.19-3.45-1.19-1.99,0-3.53.78-4.65,2.34s-1.67,3.46-1.67,5.71c0,2.66.6,4.71,1.8,6.16,1.2,1.45,2.71,2.17,4.52,2.17.77,0,1.48-.11,2.11-.34.63-.23,1.17-.57,1.63-1.04.46-.47.8-.85,1.02-1.15.22-.3.48-.71.8-1.24ZM60.5,96.87l-3.19,4.13h-4.83l-3.27-4.13h4.25l1.45,1.83,1.42-1.83h4.17Z"/>
    <path d="M87.18,120.9h-13.54v.22c0,1.27.4,2.33,1.2,3.18.8.85,1.84,1.27,3.12,1.27,1.21,0,2.22-.33,3.05-.99.82-.66,1.4-1.44,1.74-2.35l4.21,2.16c-1.06,1.77-2.41,3.12-4.03,4.04-1.62.92-3.42,1.38-5.41,1.38-2.9,0-5.23-.86-6.97-2.59-1.74-1.72-2.61-4.09-2.61-7.11,0-1.27.17-2.48.51-3.63.34-1.15.86-2.24,1.56-3.27.7-1.03,1.71-1.86,3.03-2.48,1.32-.62,2.86-.93,4.63-.93s3.18.32,4.47.95c1.28.64,2.27,1.48,2.97,2.55.7,1.07,1.22,2.21,1.56,3.43.34,1.22.51,2.53.51,3.92v.25ZM73.64,117.45h7.77c-.05-1.08-.41-1.96-1.09-2.66-.68-.69-1.57-1.04-2.69-1.04-1.18,0-2.11.38-2.76,1.13s-1.06,1.61-1.23,2.57Z"/>
    <path d="M105.66,112.56l-3.45,3.16c-1.52-1.25-3.13-1.87-4.83-1.87-.7,0-1.31.12-1.83.36s-.78.6-.78,1.08c0,.43.22.75.65.95.44.2,1.25.43,2.43.66l1.34.25c4.55.84,6.82,2.8,6.82,5.89,0,1.46-.48,2.71-1.45,3.74-.97,1.03-2.11,1.75-3.41,2.17-1.31.42-2.67.63-4.1.63-2.1,0-3.94-.37-5.5-1.11-1.56-.74-2.79-1.58-3.69-2.52l3.52-3.16c.73.77,1.59,1.39,2.58,1.87s1.97.72,2.94.72,1.77-.16,2.41-.49c.64-.32.96-.77.96-1.35,0-.48-.22-.83-.67-1.06-.45-.23-1.23-.43-2.34-.59l-1.71-.29c-4.23-.72-6.35-2.57-6.35-5.57,0-1.72.71-3.2,2.12-4.44,1.42-1.23,3.38-1.85,5.9-1.85,3.15,0,5.95.93,8.42,2.8Z"/>
    <path d="M128.45,129.12h-6.46l-4.86-8.08-2.4,2.26v5.82h-5.44v-25.36h5.48v13.04l6.13-6.43h6.72l-6.53,6.68,7.37,12.07Z"/>
    <path d="M146.39,129.12h-5.48v-1.69c-.05.05-.28.21-.71.49-.42.27-.7.45-.83.52s-.4.22-.8.43c-.4.21-.74.36-1.02.43s-.64.14-1.09.21c-.45.07-.9.11-1.36.11-2.01,0-3.55-.57-4.61-1.72-1.06-1.15-1.6-2.48-1.6-3.99,0-1.15.37-2.21,1.1-3.18.74-.97,1.7-1.71,2.89-2.21.92-.38,3.41-.96,7.48-1.72v-1.04c0-1.51-.71-2.26-2.14-2.26-1.7,0-2.68.73-2.94,2.19h-5.59c0-1.94.76-3.4,2.29-4.36,1.52-.97,3.42-1.46,5.7-1.46.73,0,1.43.04,2.11.13.68.08,1.4.25,2.16.49s1.42.55,1.98.93c.56.38,1.02.9,1.38,1.56.36.66.54,1.42.54,2.28v10.95c0,1.41.18,2.38.54,2.91ZM140.36,120.14l-3.6,1.19c-1.6.5-2.4,1.28-2.4,2.33,0,.43.18.86.54,1.28.36.42.9.63,1.6.63,1.09,0,2-.44,2.74-1.31s1.11-1.97,1.11-3.29v-.83ZM144.17,103.3l-5.55,4.78h-3.7l2.65-4.78h6.61Z"/>
    <path d="M161.49,110.37h5.41v1.94c.77-.65,1.51-1.11,2.22-1.4,1.11-.45,2.2-.71,3.27-.75v4.88l-1.85.29c-1.43.21-2.37.55-2.81.99-.45.44-.67,1.19-.67,2.24v10.56h-5.55v-18.75Z"/>
    <path d="M193.07,120.9h-13.54v.22c0,1.27.4,2.33,1.2,3.18.8.85,1.84,1.27,3.12,1.27,1.21,0,2.22-.33,3.05-.99.82-.66,1.4-1.44,1.74-2.35l4.21,2.16c-1.06,1.77-2.41,3.12-4.03,4.04-1.62.92-3.42,1.38-5.41,1.38-2.9,0-5.23-.86-6.97-2.59-1.74-1.72-2.61-4.09-2.61-7.11,0-1.27.17-2.48.51-3.63.34-1.15.86-2.24,1.56-3.27.7-1.03,1.71-1.86,3.03-2.48,1.32-.62,2.86-.93,4.63-.93s3.18.32,4.47.95c1.28.64,2.27,1.48,2.97,2.55.7,1.07,1.22,2.21,1.56,3.43.34,1.22.51,2.53.51,3.92v.25ZM179.53,117.45h7.77c-.05-1.08-.41-1.96-1.09-2.66-.68-.69-1.57-1.04-2.69-1.04-1.18,0-2.11.38-2.76,1.13-.65.75-1.06,1.61-1.23,2.57Z"/>
    <path d="M196.16,110.37h5.01v1.83c.19-.29.46-.58.8-.88.34-.3.92-.61,1.74-.92.82-.31,1.74-.47,2.76-.47,2.61,0,4.64.94,6.08,2.82,1.44,1.88,2.16,4.2,2.16,6.95,0,3.02-.74,5.4-2.23,7.15s-3.49,2.62-6.01,2.62c-.92,0-1.69-.12-2.3-.36s-1.4-.65-2.34-1.22v7.72h-5.66v-25.25ZM201.57,120c0,1.63.33,2.95,1,3.97.66,1.02,1.62,1.53,2.85,1.53,1.33,0,2.32-.6,2.96-1.8s.96-2.62.96-4.27c0-.43-.04-.9-.13-1.42s-.24-1.11-.47-1.8-.62-1.25-1.18-1.69c-.56-.44-1.22-.66-2-.66-1.14,0-2.09.52-2.85,1.54-.76,1.03-1.14,2.56-1.14,4.6Z"/>
    <path d="M235.15,129.12h-5.59v-1.76c-.36.53-1.03,1.04-1.99,1.54-.97.5-2.14.75-3.52.75-2.08,0-3.6-.54-4.54-1.62-.95-1.08-1.42-2.78-1.42-5.1v-12.57h5.63v12.03c0,1.84.9,2.77,2.69,2.77,1.07,0,1.86-.29,2.4-.86s.8-1.32.8-2.23v-11.71h5.55v18.75Z"/>
    <path d="M240.19,103.76h5.44v8.33c.44-.45.79-.8,1.05-1.04.27-.24.8-.5,1.6-.79.8-.29,1.72-.43,2.76-.43,2.35,0,4.28.85,5.81,2.55,1.52,1.7,2.29,4.04,2.29,7,0,1.27-.15,2.48-.45,3.64-.3,1.16-.76,2.25-1.38,3.27s-1.48,1.83-2.58,2.42c-1.1.6-2.39.9-3.86.9-1.26,0-2.37-.25-3.32-.74-.96-.49-1.69-1.07-2.2-1.74v1.98h-5.16v-25.36ZM253.7,119.53c0-.55-.04-1.09-.13-1.63s-.24-1.14-.47-1.81-.62-1.21-1.16-1.62c-.54-.41-1.23-.61-2.05-.61-1.31,0-2.37.45-3.18,1.35-.81.9-1.22,2.36-1.22,4.4,0,3.95,1.39,5.93,4.17,5.93.87,0,1.6-.22,2.2-.66.59-.44,1.01-1.03,1.25-1.76.24-.73.4-1.37.47-1.9.07-.54.11-1.1.11-1.67Z"/>
    <path d="M268.44,129.12h-5.55v-25.36h5.55v25.36Z"/>
    <path d="M279.04,108.04h-5.55v-4.27h5.55v4.27ZM279.04,129.12h-5.55v-18.75h5.55v18.75Z"/>
    <path d="M303.18,129.12h-6.46l-4.86-8.08-2.4,2.26v5.82h-5.44v-25.36h5.48v13.04l6.13-6.43h6.72l-6.53,6.68,7.37,12.07Z"/>
    <path d="M321.11,129.12h-5.48v-1.69c-.05.05-.28.21-.71.49-.42.27-.7.45-.83.52s-.4.22-.8.43c-.4.21-.74.36-1.02.43s-.64.14-1.09.21c-.45.07-.9.11-1.36.11-2.01,0-3.55-.57-4.61-1.72-1.06-1.15-1.6-2.48-1.6-3.99,0-1.15.37-2.21,1.1-3.18.74-.97,1.7-1.71,2.89-2.21.92-.38,3.41-.96,7.48-1.72v-1.04c0-1.51-.71-2.26-2.14-2.26-1.7,0-2.68.73-2.94,2.19h-5.59c0-1.94.76-3.4,2.29-4.36,1.52-.97,3.42-1.46,5.7-1.46.73,0,1.43.04,2.11.13.68.08,1.4.25,2.16.49s1.42.55,1.98.93c.56.38,1.02.9,1.38,1.56.36.66.54,1.42.54,2.28v10.95c0,1.41.18,2.38.54,2.91ZM315.09,120.14l-3.6,1.19c-1.6.5-2.4,1.28-2.4,2.33,0,.43.18.86.54,1.28.36.42.9.63,1.6.63,1.09,0,2-.44,2.74-1.31s1.11-1.97,1.11-3.29v-.83Z"/>
  </g>
</svg>