<?xml version="1.0" encoding="UTF-8"?>
<svg id="Layer_1" data-name="Layer 1" xmlns="http://www.w3.org/2000/svg" viewBox="0 0 283.46 283.46">
  <defs>
    <style>
      .cls-1 {
        fill: #0d173c;
      }

      .cls-2 {
        fill: #68100f;
      }

      .cls-3 {
        fill: #ed1c24;
      }

      .cls-4 {
        fill: #f1eee5;
      }

      .cls-5 {
        fill: #fff;
      }

      .cls-6 {
        fill: #0b163b;
      }

      .cls-7 {
        fill: #690505;
      }

      .cls-8 {
        fill: #a1adbc;
      }

      .cls-9 {
        fill: #2a5caa;
      }
    </style>
  </defs>
  <g>
    <polygon class="cls-2" points="76.49 283.46 214.87 0 -1.15 0 -1.15 1.09 -1.15 283.46 76.49 283.46"/>
    <polygon class="cls-1" points="205.64 0 67.25 283.46 283.28 283.46 283.28 282.37 283.28 0 205.64 0"/>
  </g>
  <rect class="cls-8" x="7.32" y="6.87" width="269.08" height="269.72"/>
  <g>
    <g>
      <path class="cls-4" d="M202.71,224.29l8.58-13.95h-8.22l-4.88,8.79-4.92-8.79h-8.59l8.59,13.67-5.84,9.49-7.88-23.16h-9.31l-8.35,24.44v-24.44h-8.83l-6.41,19.47-6.41-19.47h-3.12l-5.79,11.13v17.66h6.89v-17.02l5.53,17.02h5.52l5.56-17.09v17.09h13.19l1.73-5.52h10l1.73,5.52h0s0,0,0,0h10.74l5.6-10.08,5.97,10.08h8.63l-9.71-14.84ZM171.53,227.48l3.22-10.77,3.22,10.77h-6.45Z"/>
      <g>
        <path class="cls-4" d="M131.32,216.39v-6.05h-19.88v28.79h10.69l3.15-6.05h-6.25v-5.52h9.13l3.17-6.09h-12.3v-5.08h12.3Z"/>
        <path class="cls-4" d="M101.55,222.52c-.66.62-1.82.93-3.49.93h-3.91v-7.3h3.79c1.69,0,2.88.3,3.57.89.69.59,1.03,1.49,1.03,2.7s-.33,2.17-.99,2.79ZM105.44,227.6c2.95-1.69,4.43-4.42,4.43-8.18,0-2.8-.91-5.01-2.72-6.63-1.82-1.63-4.72-2.44-8.69-2.44h-11.58v28.79h7.26v-9.96h4.47l4.84,9.96h7.98l-6.01-11.53Z"/>
      </g>
      <path class="cls-4" d="M215.58,211.54c0,.74-.55,1.2-1.2,1.2s-1.2-.46-1.2-1.2.55-1.2,1.2-1.2,1.2.46,1.2,1.2ZM215.36,211.54c0-.63-.45-1.01-.98-1.01s-.98.38-.98,1.01.45,1.01.98,1.01.98-.39.98-1.01ZM214.69,211.65l.3.54h-.36l-.26-.5h-.15v.5h-.33v-1.31h.57c.31,0,.49.15.49.42,0,.17-.1.3-.26.36ZM214.22,211.46h.18c.13,0,.21-.06.21-.17,0-.12-.07-.17-.21-.17h-.18v.35Z"/>
    </g>
    <g>
      <path class="cls-5" d="M76.56,219.98c-.35,0-.64-.21-.89-.41-1.61-1.39-4.47-3.91-5.6-5.28-.97-1.18-1.81-2.27-2.22-3.66-.24-.78-.36-1.61-.36-2.45,0-1.1.21-2.17.62-3.19,1.37-3.38,4.69-5.56,8.45-5.56s7.08,2.18,8.45,5.56c.41,1.02.62,2.09.62,3.19,0,.83-.12,1.66-.36,2.45-.42,1.38-1.25,2.47-2.22,3.66-1.12,1.37-3.98,3.89-5.58,5.27-.26.21-.56.42-.9.42Z"/>
      <g>
        <g>
          <path class="cls-4" d="M84.55,205.2h-16.05c-.38.93-.59,1.95-.59,3.01,0,.8.12,1.58.34,2.31h16.54c.22-.73.34-1.51.34-2.31,0-1.06-.21-2.08-.59-3.01Z"/>
          <path class="cls-7" d="M76.53,199.93c-3.65,0-6.77,2.18-8.02,5.27h16.05c-1.25-3.08-4.37-5.27-8.02-5.27Z"/>
        </g>
        <path class="cls-6" d="M68.26,210.52c.4,1.34,1.27,2.43,2.15,3.51,1.17,1.43,4.36,4.21,5.61,5.28h0c.17.14.36.28.51.28s.34-.14.51-.28h0c1.25-1.07,4.44-3.85,5.61-5.28.88-1.07,1.74-2.17,2.15-3.51h-16.54Z"/>
        <path class="cls-3" d="M84.55,205.2h-8.02v-3.83c0-.82.73-1.45,1.54-1.31,2.97.51,5.41,2.49,6.49,5.13Z"/>
        <path class="cls-9" d="M84.79,210.52c-.4,1.34-1.27,2.43-2.15,3.51-1.17,1.43-4.36,4.21-5.61,5.28h0c-.17.14-.36.28-.51.28v-7.69c0-.76.62-1.38,1.37-1.38h6.89Z"/>
      </g>
    </g>
  </g>
  <g>
    <path class="cls-4" d="M41.83,60.4l3.75,1.56c-.18.46-.39.92-.63,1.38-.24.46-.62,1.01-1.14,1.65-.52.64-1.09,1.2-1.72,1.68-.63.48-1.44.89-2.43,1.23-.99.34-2.06.51-3.22.51-1.3,0-2.53-.22-3.67-.67-1.15-.45-2.2-1.12-3.15-2.01-.95-.89-1.7-2.08-2.25-3.57s-.83-3.18-.83-5.08c0-.98.11-1.96.33-2.94.22-.98.58-1.95,1.1-2.92.51-.97,1.14-1.83,1.89-2.57.75-.74,1.71-1.34,2.87-1.8,1.16-.46,2.45-.69,3.87-.69,1.3,0,2.46.19,3.49.57,1.03.38,1.88.91,2.54,1.58.66.67,1.2,1.36,1.61,2.07.41.71.73,1.49.97,2.33l-3.93,1.02c-.12-1.14-.61-2.08-1.47-2.82-.86-.74-1.88-1.11-3.06-1.11-1.76,0-3.18.65-4.27,1.95-1.09,1.3-1.64,3.1-1.64,5.4,0,.82.09,1.62.27,2.42s.47,1.59.88,2.4c.41.81,1.02,1.46,1.83,1.96s1.77.75,2.89.75c1.28,0,2.37-.42,3.27-1.25s1.52-1.83,1.86-3.01Z"/>
    <path class="cls-4" d="M64.21,67.87h-15.81v-21.18h15.06v3.54h-11.16v4.98h10.23v3.42h-10.23v5.67h11.91v3.57Z"/>
    <path class="cls-4" d="M68.5,46.69h8.67c2.08,0,3.77.62,5.05,1.86,1.29,1.24,1.94,2.86,1.94,4.86,0,1.24-.32,2.4-.95,3.46-.63,1.07-1.71,1.86-3.22,2.36l4.71,8.64h-4.53l-4.17-7.86h-3.57v7.86h-3.93v-21.18ZM72.43,50.11v6.6h3.06c3.1,0,4.65-1.11,4.65-3.33s-1.37-3.27-4.11-3.27h-3.6Z"/>
    <path class="cls-4" d="M101.68,50.26h-5.85v17.61h-3.96v-17.61h-5.76v-3.57h15.57v3.57Z"/>
    <path class="cls-4" d="M108.61,67.87h-3.9v-21.18h3.9v21.18Z"/>
    <path class="cls-4" d="M128.77,50.23h-10.08v5.28h8.85v3.39h-8.85v8.97h-3.93v-21.18h14.01v3.54Z"/>
    <path class="cls-4" d="M136.12,67.87h-3.9v-21.18h3.9v21.18Z"/>
    <path class="cls-4" d="M159.79,67.87h-4.53l-5.64-9.96-3.45,3.96v6h-3.93v-21.18h3.93v9.72l8.49-9.72h4.65l-6.93,7.98,7.41,13.2Z"/>
    <path class="cls-4" d="M160.69,57.31c0-3.16.94-5.81,2.83-7.95,1.89-2.14,4.33-3.21,7.33-3.21,2.08,0,3.9.52,5.47,1.58,1.57,1.05,2.74,2.4,3.51,4.05.77,1.65,1.16,3.45,1.16,5.38,0,1.02-.11,2.03-.32,3.03s-.58,2-1.09,3c-.52,1-1.16,1.88-1.92,2.64-.76.76-1.74,1.38-2.92,1.86-1.19.48-2.52.72-3.98.72-3.02,0-5.46-1.08-7.3-3.24s-2.77-4.78-2.77-7.86ZM164.77,57.16c0,.88.11,1.74.33,2.58.22.84.56,1.65,1.02,2.42s1.1,1.39,1.92,1.86c.82.47,1.77.71,2.85.71,1.68,0,3.12-.63,4.32-1.9,1.2-1.27,1.8-3.04,1.8-5.33,0-1.32-.21-2.55-.64-3.69-.43-1.14-1.12-2.09-2.08-2.86-.96-.77-2.11-1.16-3.45-1.16-1.78,0-3.24.66-4.37,1.98-1.13,1.32-1.7,3.12-1.7,5.4Z"/>
    <path class="cls-4" d="M199.63,46.69l-6.03,21.18h-5.34l-6.24-21.18h4.17l4.74,16.71,4.62-16.71h4.08Z"/>
    <path class="cls-4" d="M217.75,67.87h-4.23l-1.23-4.14h-7.95l-1.23,4.14h-4.26l7.17-21.18h4.5l7.23,21.18ZM211.24,60.25l-2.91-9.75-2.94,9.75h5.85Z"/>
    <path class="cls-4" d="M236.89,67.87h-3.48l-9.27-14.85c.16,9.64.24,14.59.24,14.85h-3.87v-21.18h3.57l9.39,14.94c-.3-9.64-.46-14.62-.48-14.94h3.9v21.18Z"/>
    <path class="cls-4" d="M257.74,46.69l-7.14,12.81v8.37h-3.93v-8.37l-7.08-12.81h4.5l4.59,8.76,4.62-8.76h4.44ZM252.91,41.02l-3.24,3.6h-2.67l1.62-3.6h4.29Z"/>
    <path class="cls-4" d="M104.95,100.87h-3.87l.39-17.4-4.59,17.4h-3.57l-4.59-17.4c.26,11.14.39,16.94.39,17.4h-3.87v-21.18h5.76l4.14,15.72,4.08-15.72h5.73v21.18Z"/>
    <path class="cls-4" d="M126.4,100.87h-4.23l-1.23-4.14h-7.95l-1.23,4.14h-4.26l7.17-21.18h4.5l7.23,21.18ZM119.89,93.25l-2.91-9.75-2.94,9.75h5.85Z"/>
    <path class="cls-4" d="M146.65,100.87h-4.53l-5.64-9.96-3.45,3.96v6h-3.93v-21.18h3.93v9.72l8.49-9.72h4.65l-6.93,7.98,7.41,13.2Z"/>
    <path class="cls-4" d="M162.19,100.87h-12.39v-21.18h3.99v17.58h8.4v3.6Z"/>
    <path class="cls-4" d="M180.52,100.87h-15.81v-21.18h15.06v3.54h-11.16v4.98h10.23v3.42h-10.23v5.67h11.91v3.57ZM175.99,74.02l-3.24,3.6h-2.67l1.62-3.6h4.29Z"/>
    <path class="cls-4" d="M183.55,79.69h8.67c2.08,0,3.77.62,5.06,1.86,1.29,1.24,1.93,2.86,1.93,4.86,0,1.24-.31,2.4-.95,3.46-.63,1.07-1.71,1.86-3.22,2.36l4.71,8.64h-4.53l-4.17-7.86h-3.57v7.86h-3.93v-21.18ZM194.41,74.02l-3,3.72h-3.54l-3.12-3.72h3.57l1.29,1.71,1.26-1.71h3.54ZM187.48,83.11v6.6h3.06c3.1,0,4.65-1.11,4.65-3.33s-1.37-3.27-4.11-3.27h-3.6Z"/>
  </g>
  <g>
    <path class="cls-4" d="M90.01,141.94l-5.85,4.18c-2.55-2.64-5.33-3.96-8.32-3.96-1.5,0-2.66.35-3.49,1.06-.83.71-1.24,1.48-1.24,2.32s.33,1.49.99,1.94c.66.45,1.68.78,3.06.99l3.51.5c4.17.6,7.16,1.6,8.98,2.99,1.81,1.39,2.72,3.44,2.72,6.14,0,3.39-1.28,6.08-3.85,8.08-2.57,2-6.1,2.99-10.6,2.99-3.45,0-6.28-.55-8.48-1.64s-4.21-2.69-6.01-4.79l6.03-3.83c1.02,1.26,2.37,2.24,4.05,2.95,1.68.71,3.39,1.06,5.13,1.06,1.41,0,2.74-.31,3.98-.95,1.24-.63,1.87-1.54,1.87-2.74,0-1.02-.49-1.76-1.46-2.23-.98-.46-2.33-.8-4.07-1.01l-3.65-.5c-3.03-.42-5.48-1.36-7.33-2.81-1.86-1.46-2.79-3.5-2.79-6.14,0-3.18,1.13-5.74,3.4-7.7,2.26-1.95,5.41-2.92,9.43-2.92,3.03,0,5.64.55,7.83,1.64,2.19,1.1,4.24,2.56,6.17,4.39Z"/>
    <path class="cls-4" d="M104.81,168.45h-7.92v-31.77h7.92v31.77Z"/>
    <path class="cls-4" d="M133.25,168.45h-20.34v-31.77h7.92v25.06h12.42v6.71Z"/>
    <path class="cls-4" d="M159.57,136.68l-11.02,31.77h-8.1l-10.89-31.77h8.46l6.57,22.59,6.53-22.59h8.46Z"/>
    <path class="cls-4" d="M162.68,168.45v-31.77h23.49v6.16h-15.57v5.76h14.53v6.03h-14.53v7.56h16.96v6.25h-24.89Z"/>
    <path class="cls-4" d="M193.59,136.68h15.03c1.11,0,2.14.06,3.11.18.96.12,2.02.4,3.19.83,1.17.44,2.17,1.01,2.99,1.73.82.72,1.51,1.73,2.07,3.02.55,1.29.83,2.81.83,4.54,0,2.49-.58,4.4-1.75,5.71-1.17,1.32-2.76,2.34-4.77,3.06l7.33,12.69h-8.73l-6.35-11.34h-4.95v11.34h-8.01v-31.77ZM201.56,142.57v8.64h6.57c1.05,0,1.93-.17,2.63-.52.7-.34,1.19-.79,1.46-1.35.27-.55.45-1.02.54-1.39.09-.38.14-.76.14-1.15,0-2.82-1.58-4.23-4.73-4.23h-6.61Z"/>
  </g>
</svg>