<?xml version="1.0" encoding="UTF-8"?>
<svg id="Layer_2" data-name="Layer 2" xmlns="http://www.w3.org/2000/svg" xmlns:xlink="http://www.w3.org/1999/xlink" viewBox="0 0 230.4 115.2">
  <defs>
    <style>
      .cls-1 {
        fill: none;
      }

      .cls-2 {
        fill: #1a1d3a;
      }

      .cls-3 {
        fill: #e21f26;
      }

      .cls-4 {
        fill: #3153a1;
      }

      .cls-5 {
        fill: #fff;
      }

      .cls-6 {
        fill: #6d1610;
      }

      .cls-7 {
        fill: #151411;
      }

      .cls-8 {
        fill: #f9f6ee;
      }

      .cls-9 {
        clip-path: url(#clippath);
      }
    </style>
    <clipPath id="clippath">
      <rect class="cls-1" width="230.4" height="115.2"/>
    </clipPath>
  </defs>
  <g id="Layer_1-2" data-name="Layer 1">
    <path class="cls-7" d="M206.18,65.06l12.82-20.84h-12.28l-7.29,13.13-7.34-13.13h-12.83l12.83,20.41-8.73,14.18-11.78-34.59h-13.91l-12.47,36.5v-36.5h-13.19l-9.58,29.09-9.57-29.09h-4.66l-8.65,16.62v26.38h10.3v-25.42l8.26,25.42h8.25l8.31-25.53v25.53h19.7l2.59-8.24h14.93l2.58,8.24h0s0,0,0,0h16.05l8.37-15.06,8.91,15.06h12.89l-14.51-22.16ZM159.6,69.82l4.82-16.08,4.82,16.08h-9.63Z"/>
    <polygon class="cls-7" points="99.56 53.26 99.56 44.23 69.87 44.23 69.87 87.23 85.83 87.23 90.53 78.19 81.19 78.19 81.19 69.94 94.82 69.94 99.56 60.85 81.19 60.85 81.19 53.26 99.56 53.26"/>
    <g class="cls-9">
      <path class="cls-7" d="M55.09,62.42c-.99.92-2.72,1.38-5.21,1.38h-5.84v-10.9h5.66c2.52,0,4.31.45,5.33,1.33,1.03.88,1.54,2.23,1.54,4.03s-.49,3.24-1.47,4.16M60.9,70c4.41-2.53,6.62-6.61,6.62-12.22,0-4.18-1.36-7.48-4.06-9.91-2.71-2.43-7.04-3.64-12.98-3.64h-17.29v43h10.85v-14.88h6.68l7.23,14.88h11.92l-8.97-17.23Z"/>
      <path class="cls-7" d="M225.4,46.02c0,1.1-.82,1.79-1.79,1.79s-1.79-.69-1.79-1.79.82-1.79,1.79-1.79,1.79.68,1.79,1.79M225.08,46.02c0-.93-.67-1.51-1.46-1.51s-1.46.57-1.46,1.51.67,1.51,1.46,1.51,1.46-.58,1.46-1.51M224.07,46.18l.45.8h-.54l-.39-.75h-.22v.75h-.49v-1.96h.85c.47,0,.73.23.73.62,0,.25-.14.45-.39.53M223.37,45.9h.27c.2,0,.31-.09.31-.26,0-.17-.11-.26-.31-.26h-.27v.52Z"/>
      <path class="cls-5" d="M17.77,58.63c-.52,0-.96-.31-1.33-.61-2.41-2.07-6.68-5.84-8.36-7.88-1.45-1.76-2.7-3.39-3.32-5.46-.36-1.17-.54-2.4-.54-3.66,0-1.64.31-3.24.93-4.76,2.05-5.04,7-8.3,12.62-8.3s10.58,3.26,12.62,8.3c.62,1.52.93,3.12.93,4.76,0,1.24-.18,2.48-.54,3.66-.62,2.07-1.87,3.7-3.32,5.46-1.68,2.05-5.95,5.8-8.34,7.86-.39.32-.84.63-1.35.63"/>
      <path class="cls-8" d="M29.7,36.55H5.73c-.57,1.39-.88,2.91-.88,4.49,0,1.2.18,2.36.51,3.45h24.7c.33-1.09.51-2.25.51-3.45,0-1.58-.31-3.1-.88-4.49"/>
      <path class="cls-6" d="M17.72,28.68c-5.45,0-10.11,3.26-11.98,7.86h23.96c-1.87-4.6-6.53-7.86-11.98-7.86"/>
      <path class="cls-2" d="M5.37,44.49c.6,2,1.89,3.64,3.21,5.24,1.75,2.13,6.51,6.28,8.38,7.89h0c.25.21.54.42.76.42s.51-.21.76-.41h0c1.86-1.6,6.62-5.76,8.38-7.89,1.31-1.6,2.61-3.24,3.21-5.24H5.37Z"/>
      <path class="cls-3" d="M29.7,36.55h-11.98v-5.72c0-1.22,1.1-2.16,2.3-1.95,4.44.77,8.08,3.72,9.69,7.67"/>
      <path class="cls-4" d="M30.06,44.49c-.61,2-1.9,3.64-3.21,5.24-1.75,2.13-6.51,6.28-8.38,7.89h0c-.25.21-.54.42-.76.42v-11.48c0-1.14.92-2.05,2.05-2.05h10.3Z"/>
    </g>
  </g>
</svg>